<svg id="Layer_1" data-name="Layer 1" xmlns="http://www.w3.org/2000/svg" viewBox="0 0 255.64 63.39"><defs><style>.cls-1{fill:#fff;}.cls-2{fill:#231f20;}.cls-3{fill:none;}</style></defs><title>Fid_Logo_Blk</title><path class="cls-1" d="M201.65,396.27a25.35,25.35,0,1,0-25.35-25.35,25.35,25.35,0,0,0,25.35,25.35" transform="translate(-171.69 -341.04)"/><path class="cls-2" d="M197.75,375.15h9.33l2.73,1.76H197.34l-5.6,17.3a25.85,25.85,0,0,1,.36-48.12,26,26,0,0,1,31.71,11,26,26,0,0,1,2.48,21A25.34,25.34,0,0,1,218,390.4l-6.88-11.47,9.58,5.34c.06,0,.08-.06.06-.11l-12.56-10.84,16.24,2.47c.05,0,.08,0,.08-.05l-.11-.08-15.31-5.37L225,366.45c.06,0,.06-.05,0-.08l-16.32,1.06,12.78-9.68c0-.05-.09-.08-.11,0L207,365l7.92-14s0-.08-.05-.06L204.5,363.13l2-16s-.06-.06-.11,0l-4.77,15.5-4.17-16s-.08-.06-.11,0l1.15,16.56-9.84-12.8s0,0-.08,0L196,364.62l-14.06-7.68s-.08,0-.08.05l12.5,10.27-16-1.68c-.06,0-.06.08,0,.1l15.48,4.53-15.4,4.52a.08.08,0,0,0,0,.11L194.36,373l-12.48,10.6a0,0,0,0,0,0,.08l.17-.05,10-5.24,2.35-3.73h2.67l-1.85-1.31,6.18-9.92-3.65,11.72h0" transform="translate(-171.69 -341.04)"/><path class="cls-2" d="M243.8,388.21H231.34l10-35.61h25.54L264.42,361h-13l-1.67,6.07h13l-2.2,7.78h-13Z" transform="translate(-171.69 -341.04)"/><path class="cls-2" d="M272.63,388.21H260.31l7.3-26h12.32Zm8-28.5H268.28l2-7.11H282.6Z" transform="translate(-171.69 -341.04)"/><path class="cls-2" d="M304.57,388.21H292.5l.86-2.92a12.74,12.74,0,0,1-8.88,3.54c-4,0-6.54-1.92-6.54-6A36.85,36.85,0,0,1,282.33,367a10.27,10.27,0,0,1,9.4-5.3c3.49,0,6.07,1.53,7.07,3.44l3.44-12.55h12.31Zm-9.26-18.29a2.75,2.75,0,0,0-2.81,1.86,17.53,17.53,0,0,0-1.72,6.5,1.82,1.82,0,0,0,1.91,1.86,3.71,3.71,0,0,0,2.1-.62l2.48-8.55A2.46,2.46,0,0,0,295.31,369.92Z" transform="translate(-171.69 -341.04)"/><path class="cls-2" d="M339.35,376.84h-17a15.15,15.15,0,0,0-.66,3.44,1.65,1.65,0,0,0,1.81,1.86c1.72,0,2.48-.67,3.2-3.2h12.07c-1.52,7.4-10.31,9.93-15.7,9.93-7.3,0-13-1.05-13-8.06,0-3.87,2-10.27,4.53-13.65,3.1-4.06,8.5-5.59,13.46-5.59,7.64,0,12.6,1.58,12.6,8.07A32.13,32.13,0,0,1,339.35,376.84ZM327,368.11c-1.52,0-2.58,1.05-3.24,3.67h5.06a8.66,8.66,0,0,0,.33-1.81C329.18,368.54,328.32,368.11,327,368.11Z" transform="translate(-171.69 -341.04)"/><path class="cls-2" d="M351.72,388.21H339.41l10-35.61H361.7Z" transform="translate(-171.69 -341.04)"/><path class="cls-2" d="M368,388.21H355.68l7.3-26H375.3Zm8-28.5H363.65l2-7.11H378Z" transform="translate(-171.69 -341.04)"/><path class="cls-2" d="M398.1,362.19l1.08,5.87h-9.43L387,377.94a9,9,0,0,0-.43,2.34c0,1.15.48,1.53,2.15,1.53h2.63l-1.82,6.4h-11c-3.62,0-5-1.77-5-4.45a13.09,13.09,0,0,1,.53-3.62l6.68-23.73h12.32l-1.63,5.78Z" transform="translate(-171.69 -341.04)"/><path class="cls-2" d="M231.09,392.21h3.07l-2,6.41h-3.06Z" transform="translate(-171.69 -341.04)"/><path class="cls-2" d="M241.8,392.21h4.49l1.15,4.27h0l1.3-4.27h2.67l-2,6.39-4.3,0L243.93,394h0l-1.37,4.56h-2.66Z" transform="translate(-171.69 -341.04)"/><path class="cls-2" d="M257.26,392.21h3.38l.59,4,3.09-4h3.13l-5.16,6.39h-3.75Z" transform="translate(-171.69 -341.04)"/><path class="cls-2" d="M273.33,392.22h7l-.4,1.3h-4l-.39,1.31h3.76l-.37,1.23h-3.77l-.38,1.26h4.05l-.41,1.3h-7Z" transform="translate(-171.69 -341.04)"/><path class="cls-2" d="M303.32,393.78h-2.39l.48-1.56h7.85l-.48,1.55h-2.39l-1.46,4.82h-3.07Z" transform="translate(-171.69 -341.04)"/><path class="cls-2" d="M315.61,392.21h4.65l.22,4.28h0l2.77-4.28h4.67L326,398.6h-2.85l1.46-4.83h0l-3.46,4.83h-3l-.42-4.82h0l-1.46,4.81h-2.6Z" transform="translate(-171.69 -341.04)"/><path class="cls-2" d="M347.49,392.21H352l1.16,4.27h0l1.3-4.27h2.66l-1.95,6.41h-4.35L349.61,394h0l-1.39,4.56h-2.67Z" transform="translate(-171.69 -341.04)"/><path class="cls-2" d="M364.48,393.77h-2.39l.47-1.56h7.85l-.47,1.55h-2.39l-1.47,4.84H363Z" transform="translate(-171.69 -341.04)"/><path class="cls-3" d="M418.64,385.51c0-.51-.47-.54-.91-.53h-.51v1.07h.51C418.17,386.05,418.64,386,418.64,385.51Z" transform="translate(-171.69 -341.04)"/><path class="cls-3" d="M417.81,383.57a2.76,2.76,0,1,0,2.75,2.75A2.76,2.76,0,0,0,417.81,383.57Zm.88,4.64-1-1.56h-.51v1.56h-.7v-3.82H418c.91,0,1.35.41,1.35,1.15a1,1,0,0,1-.92,1l1,1.62Z" transform="translate(-171.69 -341.04)"/><path class="cls-2" d="M417.81,383a3.35,3.35,0,1,0,3.34,3.35A3.36,3.36,0,0,0,417.81,383Zm0,6.11a2.76,2.76,0,1,1,2.75-2.76A2.77,2.77,0,0,1,417.81,389.08Z" transform="translate(-171.69 -341.04)"/><path class="cls-2" d="M419.15,385.63c0-.67-.39-1-1.22-1h-1.3V388h.6v-1.41h.46l.87,1.41h.66l-.9-1.46A.88.88,0,0,0,419.15,385.63Zm-1.92.46v-1h.46c.39,0,.83,0,.83.48s-.44.49-.83.49Z" transform="translate(-171.69 -341.04)"/><path d="M289.73,394.15a.33.33,0,0,1-.05-.29c.1-.33.51-.54,1.16-.54a2.59,2.59,0,0,1,1.14.18.46.46,0,0,1,.17.52h2.72c.32-1.15-.4-1.88-3.47-1.88-2.92,0-4.57.63-5,2a1.11,1.11,0,0,0,.18,1.12c.75.74,4.14,1,4.43,1.44a.31.31,0,0,1,0,.3c-.15.51-.88.64-1.51.64a1.89,1.89,0,0,1-1.09-.25.58.58,0,0,1-.06-.59h-2.84c-.29,1-.41,2,3.55,2,3.31,0,4.83-.82,5.22-2.08a1.06,1.06,0,0,0-.22-1.18C293.37,394.83,290.08,394.55,289.73,394.15Z" transform="translate(-171.69 -341.04)"/><path d="M334.19,392.22h7l-.4,1.3h-4l-.39,1.31h3.76l-.37,1.23H336l-.38,1.27h4.05l-.41,1.3h-7Z" transform="translate(-171.69 -341.04)"/><path class="cls-2" d="M414.73,362.19l-6.68,14.42.19-14.42H395.78l2.39,26c-.31,1.52-.81,2.38-1.77,2.8a12.34,12.34,0,0,1-4.24.34H392l-2,7.06h8.4c5,0,7.4-2.49,10.93-8l17.95-28.21Z" transform="translate(-171.69 -341.04)"/><path d="M378.37,394.14a.35.35,0,0,1,0-.3c.1-.32.51-.54,1.16-.54a2.66,2.66,0,0,1,1.13.18.46.46,0,0,1,.18.52h2.72c.32-1.14-.4-1.88-3.47-1.88s-4.57.63-5,2a1.1,1.1,0,0,0,.18,1.11c.75.75,4.14,1.05,4.43,1.45a.3.3,0,0,1,0,.29c-.15.52-.88.65-1.52.65a1.85,1.85,0,0,1-1.08-.26.57.57,0,0,1-.06-.59H374.2c-.29,1-.41,2,3.54,2,3.32,0,4.84-.82,5.23-2.08a1.08,1.08,0,0,0-.22-1.18C382,394.81,378.73,394.53,378.37,394.14Z" transform="translate(-171.69 -341.04)"/><rect class="cls-3" width="59.32" height="63.39"/></svg>