<svg width="386" height="62" viewBox="0 0 386 62" fill="none" xmlns="http://www.w3.org/2000/svg">
<path d="M34.9436 40.8738C34.4252 42.7781 33.4096 43.8625 31.8967 44.127C31.1139 44.2116 30.5267 44.2539 30.1353 44.2539C28.4214 44.2539 27.099 43.7355 26.168 42.6987C24.7715 41.1753 23.539 39.2287 22.4705 36.8589C21.4125 34.4785 20.4286 32.2357 19.5188 30.1304C18.609 28.0145 17.4717 26.1895 16.1069 24.6555C14.7528 23.1109 12.8855 21.9736 10.5051 21.2437C10.6109 20.7253 10.9812 20.4661 11.616 20.4661C11.7535 20.4661 11.9968 20.4872 12.3459 20.5295C12.6951 20.5719 12.949 20.593 13.1077 20.593C15.5938 20.593 17.6304 20.4079 19.2173 20.0376C20.8148 19.6567 22.2007 18.8051 23.375 17.4827C24.8032 15.991 25.5173 14.1925 25.5173 12.0872C25.5173 11.2408 25.3639 10.2675 25.0571 9.16724C24.5811 7.37931 23.6289 5.93522 22.2007 4.83496C20.7725 3.72412 19.1274 2.97827 17.2654 2.59741C16.3556 2.37524 14.7739 2.26416 12.5205 2.26416C11.4626 2.26416 10.5951 2.28532 9.91797 2.32764C9.25146 2.35938 8.75423 2.38582 8.42627 2.40698C8.42627 19.6938 8.55322 32.4102 8.80713 40.5564C8.80713 41.0219 8.9235 41.4768 9.15625 41.9211C9.389 42.3549 9.66406 42.6353 9.98145 42.7622C10.1719 42.8045 10.4681 42.8521 10.8701 42.905C11.2827 42.9579 11.6054 43.0426 11.8381 43.1589C12.0815 43.2753 12.2454 43.471 12.3301 43.7461C10.9653 43.9577 9.23031 44.0635 7.125 44.0635C6.58545 44.0635 5.63859 44.0529 4.28442 44.0317C2.93026 44.0106 1.75594 44 0.761475 44C0.899007 43.6297 1.24284 43.3917 1.79297 43.2859C2.3431 43.1801 2.86678 43.0796 3.36401 42.9844C3.86125 42.8892 4.16276 42.6405 4.26855 42.2385C4.78695 40.4083 5.04614 37.9644 5.04614 34.907V30.7334V4.15259C5.04614 3.68709 4.88745 3.31681 4.57007 3.04175C4.26326 2.76668 3.81364 2.48633 3.22119 2.20068C2.93555 2.10547 2.54411 2.04728 2.04688 2.02612C1.56022 2.00496 1.23755 1.97852 1.07886 1.94678C0.951904 1.94678 0.888428 1.86214 0.888428 1.69287C0.888428 1.49186 1.01538 1.35962 1.26929 1.29614C2.4436 1.29614 4.26855 1.24325 6.74414 1.13745C9.21973 1.02108 11.2087 0.962891 12.7109 0.962891C15.1548 0.962891 17.3394 1.14803 19.2649 1.51831C21.1903 1.88859 22.9624 2.59741 24.5811 3.64478C26.2103 4.69214 27.5645 6.16268 28.6436 8.0564C29.0773 8.93449 29.2942 9.9078 29.2942 10.9763C29.2942 12.6373 28.8393 14.5469 27.9294 16.7051C25.7501 19.6567 21.9362 21.561 16.4878 22.418C18.7306 23.9414 20.2012 25.0046 20.8994 25.6077C22.1055 26.6339 23.047 27.8241 23.7241 29.1782C24.4118 30.5218 25.0836 32.2198 25.7395 34.2722C26.406 36.314 27.0408 37.9644 27.6438 39.2234C28.2468 40.4718 29.1408 41.6302 30.3257 42.6987C30.6748 42.9632 31.0028 43.0955 31.3096 43.0955C32.3464 43.0955 33.2773 42.4448 34.1025 41.1436C34.3141 40.7627 34.4199 40.3289 34.4199 39.8423C34.4199 38.7632 33.965 37.6788 33.0552 36.5891C33.1292 36.5256 33.2509 36.4886 33.4202 36.478C33.5894 36.4674 33.7058 36.441 33.7693 36.3987C34.6368 37.4566 35.0706 38.5622 35.0706 39.7153C35.0706 40.2337 35.0282 40.6199 34.9436 40.8738ZM61.6038 35.4783C61.1065 37.5201 60.1226 39.2498 58.6521 40.6675C57.1921 42.0745 55.3566 43.0531 53.1455 43.6033C52.0135 43.8678 50.8868 44 49.7654 44C46.6127 44 43.6663 42.9791 40.9263 40.9373C38.7152 39.1282 37.6096 36.8324 37.6096 34.05C37.6096 33.0979 37.7842 32.0188 38.1333 30.8127C38.62 29.2258 39.3764 27.8346 40.4026 26.6392C41.4288 25.4437 42.6666 24.4862 44.116 23.7668C45.5653 23.0474 47.1893 22.5767 48.9878 22.3545C49.8553 22.2699 50.4848 22.2275 50.8762 22.2275C54.4521 22.2275 57.4408 23.5288 59.8423 26.1313C61.3128 27.8558 62.0481 29.9135 62.0481 32.3044C62.0481 33.1402 61.9 34.1982 61.6038 35.4783ZM57.9539 27.9404C56.6843 26.0044 55.1715 24.7931 53.4153 24.3064C51.9659 23.915 50.7704 23.7192 49.8289 23.7192C47.2898 23.7192 45.2321 24.9094 43.6558 27.2898C42.4497 29.1624 41.8467 31.2677 41.8467 33.6057C41.8467 34.8329 42.016 36.1077 42.3545 37.4302C42.82 38.8584 43.6558 40.0221 44.8618 40.9214C46.0785 41.8101 47.5173 42.2967 49.1782 42.3813C49.3369 42.3813 49.5697 42.3919 49.8765 42.4131C50.1833 42.4342 50.4054 42.4448 50.543 42.4448C53.3677 42.4448 55.4941 41.5138 56.9224 39.6519C58.6151 37.3984 59.4614 35.145 59.4614 32.8916C59.4614 31.1566 58.9589 29.5062 57.9539 27.9404ZM94.564 37.7C94.564 40.1121 93.2468 42.1274 90.6125 43.7461C90.0942 44.127 89.5282 44.3174 88.9146 44.3174C88.1211 44.3174 87.3171 43.9524 86.5024 43.2224C84.6828 41.3922 83.7729 38.9219 83.7729 35.8115C83.7729 35.2191 83.8047 34.3621 83.8682 33.2407C83.9422 32.1193 83.9792 31.1777 83.9792 30.416C83.9792 28.7762 83.7835 27.348 83.3921 26.1313C83.1911 25.4543 82.8367 24.8724 82.3289 24.3857C81.8316 23.8991 81.255 23.6558 80.5991 23.6558C78.7054 23.9202 76.9862 24.8354 75.4417 26.4011C73.8971 27.9563 72.6698 29.6966 71.76 31.6221C70.8502 33.5369 70.3953 35.0181 70.3953 36.0654V41.7307C70.3953 42.1222 70.7603 42.4395 71.4902 42.6829C72.2308 42.9262 72.6011 43.233 72.6011 43.6033C72.6011 43.6562 72.5588 43.8096 72.4741 44.0635C69.5225 44.0635 66.9199 44.0212 64.6665 43.9365C64.1481 43.9365 63.8889 43.8043 63.8889 43.5398C63.9841 43.307 64.3385 43.106 64.9521 42.9368C65.5763 42.7675 66.0312 42.6088 66.3169 42.4607C66.6025 42.302 66.7454 41.9899 66.7454 41.5244C66.7559 39.6413 66.7665 36.9858 66.7771 33.5581C66.7983 30.1198 66.8088 27.3797 66.8088 25.3379C66.8088 25.0628 66.6449 24.8565 66.3169 24.719C65.9995 24.5709 65.5076 24.4228 64.8411 24.2747C64.1746 24.116 63.7302 23.9996 63.5081 23.9255C63.2859 23.8409 63.1748 23.7087 63.1748 23.5288C63.1748 23.3172 63.3494 23.1003 63.6985 22.8782C64.1322 22.5714 65.259 22.418 67.0786 22.418C68.528 22.418 69.697 22.5502 70.5857 22.8147C70.5645 23.4918 70.5381 24.0472 70.5063 24.481C70.4852 24.9041 70.4587 25.4119 70.427 26.0044C70.3953 26.5863 70.3688 27.1417 70.3477 27.6707C70.3371 28.189 70.3318 28.6281 70.3318 28.9878C70.3318 29.9823 70.3953 30.9979 70.5222 32.0347C71.3474 30.6382 72.2308 29.1571 73.1724 27.5913C74.1139 26.0256 75.193 24.7296 76.4097 23.7034C77.6369 22.6772 79.0968 22.1641 80.7896 22.1641C81.9321 22.2064 82.7944 22.2963 83.3762 22.4338C83.9581 22.5608 84.5241 22.9046 85.0742 23.4653C86.8092 25.2004 87.6768 27.3427 87.6768 29.8923C87.6768 30.8022 87.5657 32.1193 87.3435 33.8438C87.1319 35.5682 87.0261 36.9171 87.0261 37.8904C87.0261 38.4934 87.0473 38.9695 87.0896 39.3186C87.2589 40.8949 87.9994 41.8682 89.3113 42.2385C89.6181 42.3337 89.8773 42.3813 90.0889 42.3813C91.5065 42.3813 92.9982 40.8209 94.564 37.7ZM125.398 36.4622C125.239 38.2501 124.874 39.7788 124.303 41.0483C123.731 42.3179 122.753 43.1272 121.367 43.4763C120.531 43.6562 119.965 43.7461 119.669 43.7461C118.442 43.7461 117.315 43.27 116.289 42.3179C115.622 41.6302 115.167 40.9108 114.924 40.1597C114.131 41.0801 113.57 41.6831 113.242 41.9688C112.914 42.2544 112.369 42.5612 111.607 42.8892C109.788 43.7144 108.037 44.127 106.355 44.127C104.154 44.127 102.091 43.4552 100.166 42.1116C97.7854 40.4506 96.5952 37.938 96.5952 34.5737C96.5952 33.7591 96.6587 32.9604 96.7856 32.1775C97.029 30.7916 97.3993 29.5644 97.8965 28.4958C98.4043 27.4273 99.0708 26.4752 99.896 25.6394C100.732 24.8036 101.779 24.0578 103.038 23.4019C104.826 22.492 106.598 22.0371 108.354 22.0371C110.449 22.0371 112.533 22.619 114.607 23.7827C114.988 22.894 115.723 22.418 116.812 22.3545C116.982 22.3545 117.177 22.3704 117.4 22.4021C117.632 22.4338 117.807 22.4603 117.923 22.4814C117.902 23.3913 117.86 24.6714 117.796 26.3218C117.743 27.9722 117.717 29.4004 117.717 30.6064C117.717 34.3727 117.913 37.6894 118.304 40.5564C118.495 41.3816 119.32 41.7942 120.78 41.7942C121.605 41.6249 122.224 41.2493 122.636 40.6675C123.049 40.075 123.451 39.2657 123.843 38.2395C124.234 37.2133 124.578 36.5098 124.874 36.1289C124.969 36.1289 125.059 36.1818 125.144 36.2876C125.239 36.3828 125.324 36.441 125.398 36.4622ZM114.48 25.8616C113.253 24.1265 111.475 23.259 109.148 23.259C107.825 23.259 106.609 23.5658 105.498 24.1794C103.689 25.0999 102.403 26.3324 101.642 27.877C100.88 29.4215 100.499 31.2835 100.499 33.4629C100.647 37.8639 102.186 40.6622 105.117 41.8577C106.037 42.2068 106.878 42.3813 107.64 42.3813C110.073 42.3813 112.327 41.1859 114.4 38.7949C114.4 37.9168 114.374 36.6261 114.321 34.9229C114.268 33.2196 114.231 31.9342 114.21 31.0667C114.21 29.1835 114.3 27.4485 114.48 25.8616ZM157.025 37.7C157.025 40.1121 155.708 42.1274 153.073 43.7461C152.555 44.127 151.989 44.3174 151.375 44.3174C150.582 44.3174 149.778 43.9524 148.963 43.2224C147.144 41.3922 146.234 38.9219 146.234 35.8115C146.234 35.2191 146.266 34.3621 146.329 33.2407C146.403 32.1193 146.44 31.1777 146.44 30.416C146.44 28.7762 146.244 27.348 145.853 26.1313C145.652 25.4543 145.298 24.8724 144.79 24.3857C144.293 23.8991 143.716 23.6558 143.06 23.6558C141.166 23.9202 139.447 24.8354 137.903 26.4011C136.358 27.9563 135.131 29.6966 134.221 31.6221C133.311 33.5369 132.856 35.0181 132.856 36.0654V41.7307C132.856 42.1222 133.221 42.4395 133.951 42.6829C134.692 42.9262 135.062 43.233 135.062 43.6033C135.062 43.6562 135.02 43.8096 134.935 44.0635C131.983 44.0635 129.381 44.0212 127.127 43.9365C126.609 43.9365 126.35 43.8043 126.35 43.5398C126.445 43.307 126.799 43.106 127.413 42.9368C128.037 42.7675 128.492 42.6088 128.778 42.4607C129.063 42.302 129.206 41.9899 129.206 41.5244C129.217 39.6413 129.227 36.9858 129.238 33.5581C129.259 30.1198 129.27 27.3797 129.27 25.3379C129.27 25.0628 129.106 24.8565 128.778 24.719C128.46 24.5709 127.969 24.4228 127.302 24.2747C126.635 24.116 126.191 23.9996 125.969 23.9255C125.747 23.8409 125.636 23.7087 125.636 23.5288C125.636 23.3172 125.81 23.1003 126.159 22.8782C126.593 22.5714 127.72 22.418 129.54 22.418C130.989 22.418 132.158 22.5502 133.047 22.8147C133.025 23.4918 132.999 24.0472 132.967 24.481C132.946 24.9041 132.92 25.4119 132.888 26.0044C132.856 26.5863 132.83 27.1417 132.809 27.6707C132.798 28.189 132.793 28.6281 132.793 28.9878C132.793 29.9823 132.856 30.9979 132.983 32.0347C133.808 30.6382 134.692 29.1571 135.633 27.5913C136.575 26.0256 137.654 24.7296 138.871 23.7034C140.098 22.6772 141.558 22.1641 143.25 22.1641C144.393 22.2064 145.255 22.2963 145.837 22.4338C146.419 22.5608 146.985 22.9046 147.535 23.4653C149.27 25.2004 150.138 27.3427 150.138 29.8923C150.138 30.8022 150.027 32.1193 149.804 33.8438C149.593 35.5682 149.487 36.9171 149.487 37.8904C149.487 38.4934 149.508 38.9695 149.551 39.3186C149.72 40.8949 150.46 41.8682 151.772 42.2385C152.079 42.3337 152.338 42.3813 152.55 42.3813C153.967 42.3813 155.459 40.8209 157.025 37.7ZM209.663 34.3198C208.943 35.9808 207.848 37.5413 206.378 39.0012C204.907 40.4506 203.225 41.6196 201.332 42.5083C199.438 43.3864 197.534 43.8625 195.619 43.9365C191.789 43.9365 188.446 43.1113 185.589 41.4609C182.733 39.8 180.379 37.3773 178.528 34.1929C176.75 31.0825 175.862 27.9827 175.862 24.8936C175.862 21.688 176.814 18.0698 178.718 14.0391C179.945 11.4048 181.389 9.16724 183.05 7.32642C184.711 5.47502 186.642 4.00977 188.843 2.93066C191.043 1.84098 193.566 1.12158 196.412 0.772461C197.671 0.772461 199.131 1.03166 200.792 1.55005C202.453 2.06844 203.611 2.32764 204.267 2.32764C204.87 2.32764 205.584 2.15837 206.41 1.81982C206.685 1.73519 206.838 1.69287 206.87 1.69287C207.177 1.69287 207.415 1.84098 207.584 2.13721C207.753 2.42285 207.838 2.75081 207.838 3.12109C207.838 6.53825 207.97 9.07202 208.235 10.7224C208.171 11.0292 208.039 11.1826 207.838 11.1826C207.33 11.1826 207.007 10.8335 206.87 10.1353C206.679 9.02441 206.251 7.92415 205.584 6.83447C204.929 5.73421 204.093 4.79264 203.077 4.00977C202.072 3.22689 201.019 2.71379 199.919 2.47046C198.893 2.20597 197.851 2.07373 196.793 2.07373C192.54 2.07373 188.62 4.32715 185.034 8.83398C183.362 10.9287 182.077 13.2721 181.178 15.864C180.278 18.456 179.829 21.0744 179.829 23.7192C179.829 28.7868 181.305 33.1402 184.256 36.7795C187.028 40.2919 190.773 42.0481 195.492 42.0481C196.539 42.0481 197.708 41.9423 198.999 41.7307C201.051 41.2864 202.955 40.366 204.712 38.9695C206.478 37.573 207.891 35.9332 208.949 34.05L209.663 34.3198ZM236.228 35.4783C235.731 37.5201 234.747 39.2498 233.276 40.6675C231.816 42.0745 229.981 43.0531 227.77 43.6033C226.638 43.8678 225.511 44 224.389 44C221.237 44 218.29 42.9791 215.55 40.9373C213.339 39.1282 212.234 36.8324 212.234 34.05C212.234 33.0979 212.408 32.0188 212.757 30.8127C213.244 29.2258 214 27.8346 215.027 26.6392C216.053 25.4437 217.291 24.4862 218.74 23.7668C220.189 23.0474 221.813 22.5767 223.612 22.3545C224.479 22.2699 225.109 22.2275 225.5 22.2275C229.076 22.2275 232.065 23.5288 234.466 26.1313C235.937 27.8558 236.672 29.9135 236.672 32.3044C236.672 33.1402 236.524 34.1982 236.228 35.4783ZM232.578 27.9404C231.308 26.0044 229.795 24.7931 228.039 24.3064C226.59 23.915 225.394 23.7192 224.453 23.7192C221.914 23.7192 219.856 24.9094 218.28 27.2898C217.074 29.1624 216.471 31.2677 216.471 33.6057C216.471 34.8329 216.64 36.1077 216.979 37.4302C217.444 38.8584 218.28 40.0221 219.486 40.9214C220.702 41.8101 222.141 42.2967 223.802 42.3813C223.961 42.3813 224.194 42.3919 224.5 42.4131C224.807 42.4342 225.029 42.4448 225.167 42.4448C227.992 42.4448 230.118 41.5138 231.546 39.6519C233.239 37.3984 234.085 35.145 234.085 32.8916C234.085 31.1566 233.583 29.5062 232.578 27.9404ZM269.188 37.7C269.188 40.1121 267.871 42.1274 265.237 43.7461C264.718 44.127 264.152 44.3174 263.539 44.3174C262.745 44.3174 261.941 43.9524 261.126 43.2224C259.307 41.3922 258.397 38.9219 258.397 35.8115C258.397 35.2191 258.429 34.3621 258.492 33.2407C258.566 32.1193 258.603 31.1777 258.603 30.416C258.603 28.7762 258.408 27.348 258.016 26.1313C257.815 25.4543 257.461 24.8724 256.953 24.3857C256.456 23.8991 255.879 23.6558 255.223 23.6558C253.329 23.9202 251.61 24.8354 250.066 26.4011C248.521 27.9563 247.294 29.6966 246.384 31.6221C245.474 33.5369 245.019 35.0181 245.019 36.0654V41.7307C245.019 42.1222 245.384 42.4395 246.114 42.6829C246.855 42.9262 247.225 43.233 247.225 43.6033C247.225 43.6562 247.183 43.8096 247.098 44.0635C244.146 44.0635 241.544 44.0212 239.291 43.9365C238.772 43.9365 238.513 43.8043 238.513 43.5398C238.608 43.307 238.963 43.106 239.576 42.9368C240.2 42.7675 240.655 42.6088 240.941 42.4607C241.227 42.302 241.369 41.9899 241.369 41.5244C241.38 39.6413 241.391 36.9858 241.401 33.5581C241.422 30.1198 241.433 27.3797 241.433 25.3379C241.433 25.0628 241.269 24.8565 240.941 24.719C240.624 24.5709 240.132 24.4228 239.465 24.2747C238.799 24.116 238.354 23.9996 238.132 23.9255C237.91 23.8409 237.799 23.7087 237.799 23.5288C237.799 23.3172 237.973 23.1003 238.323 22.8782C238.756 22.5714 239.883 22.418 241.703 22.418C243.152 22.418 244.321 22.5502 245.21 22.8147C245.189 23.4918 245.162 24.0472 245.13 24.481C245.109 24.9041 245.083 25.4119 245.051 26.0044C245.019 26.5863 244.993 27.1417 244.972 27.6707C244.961 28.189 244.956 28.6281 244.956 28.9878C244.956 29.9823 245.019 30.9979 245.146 32.0347C245.971 30.6382 246.855 29.1571 247.796 27.5913C248.738 26.0256 249.817 24.7296 251.034 23.7034C252.261 22.6772 253.721 22.1641 255.414 22.1641C256.556 22.2064 257.418 22.2963 258 22.4338C258.582 22.5608 259.148 22.9046 259.698 23.4653C261.433 25.2004 262.301 27.3427 262.301 29.8923C262.301 30.8022 262.19 32.1193 261.968 33.8438C261.756 35.5682 261.65 36.9171 261.65 37.8904C261.65 38.4934 261.671 38.9695 261.714 39.3186C261.883 40.8949 262.623 41.8682 263.935 42.2385C264.242 42.3337 264.501 42.3813 264.713 42.3813C266.131 42.3813 267.622 40.8209 269.188 37.7ZM301.18 37.7C301.18 40.1121 299.863 42.1274 297.229 43.7461C296.71 44.127 296.144 44.3174 295.531 44.3174C294.737 44.3174 293.933 43.9524 293.119 43.2224C291.299 41.3922 290.389 38.9219 290.389 35.8115C290.389 35.2191 290.421 34.3621 290.484 33.2407C290.558 32.1193 290.595 31.1777 290.595 30.416C290.595 28.7762 290.4 27.348 290.008 26.1313C289.807 25.4543 289.453 24.8724 288.945 24.3857C288.448 23.8991 287.871 23.6558 287.215 23.6558C285.322 23.9202 283.602 24.8354 282.058 26.4011C280.513 27.9563 279.286 29.6966 278.376 31.6221C277.466 33.5369 277.011 35.0181 277.011 36.0654V41.7307C277.011 42.1222 277.376 42.4395 278.106 42.6829C278.847 42.9262 279.217 43.233 279.217 43.6033C279.217 43.6562 279.175 43.8096 279.09 44.0635C276.139 44.0635 273.536 44.0212 271.283 43.9365C270.764 43.9365 270.505 43.8043 270.505 43.5398C270.6 43.307 270.955 43.106 271.568 42.9368C272.193 42.7675 272.647 42.6088 272.933 42.4607C273.219 42.302 273.362 41.9899 273.362 41.5244C273.372 39.6413 273.383 36.9858 273.393 33.5581C273.414 30.1198 273.425 27.3797 273.425 25.3379C273.425 25.0628 273.261 24.8565 272.933 24.719C272.616 24.5709 272.124 24.4228 271.457 24.2747C270.791 24.116 270.346 23.9996 270.124 23.9255C269.902 23.8409 269.791 23.7087 269.791 23.5288C269.791 23.3172 269.966 23.1003 270.315 22.8782C270.748 22.5714 271.875 22.418 273.695 22.418C275.144 22.418 276.313 22.5502 277.202 22.8147C277.181 23.4918 277.154 24.0472 277.123 24.481C277.101 24.9041 277.075 25.4119 277.043 26.0044C277.011 26.5863 276.985 27.1417 276.964 27.6707C276.953 28.189 276.948 28.6281 276.948 28.9878C276.948 29.9823 277.011 30.9979 277.138 32.0347C277.964 30.6382 278.847 29.1571 279.789 27.5913C280.73 26.0256 281.809 24.7296 283.026 23.7034C284.253 22.6772 285.713 22.1641 287.406 22.1641C288.548 22.2064 289.411 22.2963 289.992 22.4338C290.574 22.5608 291.14 22.9046 291.69 23.4653C293.425 25.2004 294.293 27.3427 294.293 29.8923C294.293 30.8022 294.182 32.1193 293.96 33.8438C293.748 35.5682 293.642 36.9171 293.642 37.8904C293.642 38.4934 293.663 38.9695 293.706 39.3186C293.875 40.8949 294.616 41.8682 295.927 42.2385C296.234 42.3337 296.493 42.3813 296.705 42.3813C298.123 42.3813 299.614 40.8209 301.18 37.7ZM326.682 35.4783C326.185 37.5201 325.201 39.2498 323.73 40.6675C322.27 42.0745 320.435 43.0531 318.224 43.6033C317.092 43.8678 315.965 44 314.844 44C311.691 44 308.744 42.9791 306.004 40.9373C303.793 39.1282 302.688 36.8324 302.688 34.05C302.688 33.0979 302.862 32.0188 303.211 30.8127C303.698 29.2258 304.455 27.8346 305.481 26.6392C306.507 25.4437 307.745 24.4862 309.194 23.7668C310.643 23.0474 312.267 22.5767 314.066 22.3545C314.933 22.2699 315.563 22.2275 315.954 22.2275C319.53 22.2275 322.519 23.5288 324.92 26.1313C326.391 27.8558 327.126 29.9135 327.126 32.3044C327.126 33.1402 326.978 34.1982 326.682 35.4783ZM323.032 27.9404C321.762 26.0044 320.25 24.7931 318.493 24.3064C317.044 23.915 315.849 23.7192 314.907 23.7192C312.368 23.7192 310.31 24.9094 308.734 27.2898C307.528 29.1624 306.925 31.2677 306.925 33.6057C306.925 34.8329 307.094 36.1077 307.433 37.4302C307.898 38.8584 308.734 40.0221 309.94 40.9214C311.157 41.8101 312.595 42.2967 314.256 42.3813C314.415 42.3813 314.648 42.3919 314.955 42.4131C315.261 42.4342 315.484 42.4448 315.621 42.4448C318.446 42.4448 320.572 41.5138 322 39.6519C323.693 37.3984 324.54 35.145 324.54 32.8916C324.54 31.1566 324.037 29.5062 323.032 27.9404ZM342.027 35.4783C342.027 38.2289 341.572 40.2655 340.663 41.5879C339.509 43.2806 338.081 44.127 336.378 44.127C335.891 44.127 335.415 44.0423 334.95 43.873C333.13 43.2594 331.935 42.1856 331.363 40.6516C330.803 39.1176 330.522 37.134 330.522 34.7007V3.96216C330.522 3.36971 330.268 2.97298 329.76 2.77197C329.253 2.57096 328.618 2.43872 327.856 2.37524C327.084 2.31177 326.698 2.21126 326.698 2.07373C326.698 1.91504 327.02 1.65584 327.666 1.29614C328.237 1.03166 329.02 0.899414 330.014 0.899414C330.469 0.899414 331.046 0.925863 331.744 0.97876C332.442 1.02108 332.993 1.04224 333.395 1.04224C333.395 5.03068 333.395 8.68587 333.395 12.0078C333.395 15.3192 333.4 19.4928 333.41 24.5286C333.432 29.5644 333.447 34.0818 333.458 38.0808C333.543 40.3131 334.431 41.6567 336.124 42.1116C336.463 42.1962 336.722 42.2385 336.902 42.2385C337.811 42.2385 338.827 41.6778 339.948 40.5564C340.393 40.1438 340.684 39.6677 340.821 39.1282C340.969 38.5886 341.133 37.9433 341.313 37.1921C341.493 36.441 341.731 35.8697 342.027 35.4783ZM355.548 35.4783C355.548 38.2289 355.093 40.2655 354.183 41.5879C353.03 43.2806 351.602 44.127 349.898 44.127C349.412 44.127 348.936 44.0423 348.47 43.873C346.651 43.2594 345.455 42.1856 344.884 40.6516C344.323 39.1176 344.043 37.134 344.043 34.7007V3.96216C344.043 3.36971 343.789 2.97298 343.281 2.77197C342.773 2.57096 342.138 2.43872 341.377 2.37524C340.604 2.31177 340.218 2.21126 340.218 2.07373C340.218 1.91504 340.541 1.65584 341.186 1.29614C341.758 1.03166 342.54 0.899414 343.535 0.899414C343.99 0.899414 344.566 0.925863 345.265 0.97876C345.963 1.02108 346.513 1.04224 346.915 1.04224C346.915 5.03068 346.915 8.68587 346.915 12.0078C346.915 15.3192 346.92 19.4928 346.931 24.5286C346.952 29.5644 346.968 34.0818 346.979 38.0808C347.063 40.3131 347.952 41.6567 349.645 42.1116C349.983 42.1962 350.242 42.2385 350.422 42.2385C351.332 42.2385 352.348 41.6778 353.469 40.5564C353.913 40.1438 354.204 39.6677 354.342 39.1282C354.49 38.5886 354.654 37.9433 354.834 37.1921C355.014 36.441 355.252 35.8697 355.548 35.4783ZM385.128 22.291C385.086 22.7036 384.959 22.9681 384.747 23.0845C384.535 23.1903 384.155 23.3278 383.604 23.4971C383.065 23.6558 382.705 23.8621 382.525 24.116C381.7 25.1845 381.018 26.3218 380.478 27.5278C379.949 28.7339 379.362 30.2732 378.717 32.1458C378.082 34.0183 377.595 35.346 377.257 36.1289C376.601 37.5783 375.575 40.001 374.178 43.397C372.782 46.7824 371.512 49.6071 370.37 51.8711C369.227 54.1457 367.862 56.3515 366.275 58.4885C365.45 59.5782 364.651 60.3928 363.879 60.9324C363.107 61.4719 362.128 61.7417 360.943 61.7417C358.859 61.5936 357.516 60.8372 356.913 59.4724C356.574 58.6049 356.405 57.8696 356.405 57.2666C356.405 56.2721 356.77 55.685 357.5 55.5051C357.87 55.5051 358.166 55.6532 358.388 55.9495C358.621 56.2457 358.859 56.69 359.103 57.2825C359.356 57.8749 359.605 58.3404 359.848 58.679C360.092 59.0281 360.414 59.2291 360.816 59.282C362.467 59.282 363.821 58.7953 364.879 57.822C365.947 56.8593 366.868 55.6109 367.64 54.0769C368.423 52.5535 369.291 50.8396 370.243 48.9353C371.121 47.3061 371.771 45.8144 372.195 44.4602C371.666 43.4869 370.793 41.9106 369.576 39.7312C368.37 37.5413 366.937 35.0551 365.276 32.2727C363.625 29.4903 362.181 27.2475 360.943 25.5442C360.446 24.8883 359.885 24.5603 359.261 24.5603C358.986 24.5603 358.727 24.6291 358.484 24.7666C357.743 25.1792 357.373 25.8722 357.373 26.8455C357.373 27.057 357.394 27.422 357.436 27.9404C357.479 28.4588 357.5 28.8503 357.5 29.1147C357.5 29.485 357.563 29.9452 357.69 30.4954C357.828 31.0455 357.896 31.5374 357.896 31.9712C357.082 30.8498 356.585 29.813 356.405 28.8608C356.225 27.8664 356.135 27.1047 356.135 26.5757C356.135 25.3379 356.526 24.3011 357.309 23.4653C358.05 22.5872 358.96 22.0847 360.039 21.9578C361.88 21.9578 363.202 22.6084 364.006 23.9097C365.424 25.8669 367.185 28.5964 369.291 32.0981C371.406 35.5894 373.004 38.2765 374.083 40.1597C374.665 39.0382 375.167 37.9486 375.591 36.8906C376.014 35.8221 376.448 34.6478 376.892 33.3677C377.336 32.077 377.765 30.7757 378.177 29.4639C378.59 28.152 379.002 26.8455 379.415 25.5442C379.415 25.0681 379.066 24.4386 378.368 23.6558C378.198 23.4865 377.897 23.386 377.463 23.3542C377.04 23.3119 376.738 23.2485 376.559 23.1638C376.379 23.0792 376.289 22.8306 376.289 22.418C376.49 22.4074 377.706 22.3968 379.939 22.3862C382.182 22.3757 383.911 22.3439 385.128 22.291Z" fill="#2A2A57"/>
</svg>
