<svg width="375" height="62" viewBox="0 0 375 62" fill="none" xmlns="http://www.w3.org/2000/svg">
<path d="M31.0872 9.23071C31.8171 10.934 32.1821 12.7325 32.1821 14.6262C32.1821 17.398 31.3199 19.8419 29.5955 21.9578C28.2307 23.7245 26.6491 25.0999 24.8506 26.0837C23.0521 27.0676 21.1637 27.5596 19.1853 27.5596C17.9158 27.5596 16.551 27.3215 15.0911 26.8455C13.9485 26.4329 13.0704 26.0044 12.4568 25.5601C11.8432 25.1051 11.3988 24.4281 11.1238 23.5288C10.9545 23.0633 10.8699 22.6084 10.8699 22.1641C10.8699 21.6139 11.1291 20.7887 11.6475 19.6885C12.0177 19.0431 12.6895 18.7205 13.6628 18.7205C13.7475 18.9744 13.7898 19.1701 13.7898 19.3076C13.7898 19.6567 13.5941 20.1646 13.2026 20.8311C12.8218 21.4976 12.6313 22.0477 12.6313 22.4814C12.6313 22.8306 12.6737 23.0898 12.7583 23.259C13.4036 25.1316 15.0276 26.0679 17.6301 26.0679C18.3495 26.0679 19.2382 25.9568 20.2961 25.7346C22.412 25.2691 24.1312 24.3381 25.4536 22.9417C26.7866 21.5452 27.5801 19.8313 27.834 17.8C27.9609 16.8373 28.0244 15.8852 28.0244 14.9436C28.0244 10.5955 26.4904 7.29997 23.4224 5.05713C20.2274 2.84603 16.5616 1.69816 12.425 1.61353C11.7585 1.61353 10.5472 1.70345 8.79102 1.8833L8.85449 40.366C8.85449 41.0536 9.08195 41.4504 9.53687 41.5562C10.0024 41.6619 10.891 41.7889 12.2029 41.937C13.5147 42.0851 14.2183 42.3602 14.3135 42.7622C14.3135 43.5874 13.9432 44 13.2026 44C13.0545 44 12.7795 43.9894 12.3774 43.9683C11.9754 43.9471 11.6475 43.9365 11.3936 43.9365C8.66406 44.0212 5.00358 44.0635 0.412109 44.0635C0.316895 43.9788 0.269287 43.8519 0.269287 43.6826C0.269287 43.3864 0.40153 43.0743 0.666016 42.7463C0.930501 42.4078 1.16854 42.2385 1.38013 42.2385C2.31112 42.2385 3.17334 42.0587 3.9668 41.699C4.76025 41.3393 5.15698 40.7415 5.15698 39.9058C5.15698 38.1602 5.16227 33.3941 5.17285 25.6077C5.19401 17.8212 5.20459 13.8592 5.20459 13.7217C5.21517 13.5841 5.22046 10.4844 5.22046 4.42236C5.22046 3.72412 5.05119 3.24805 4.71265 2.99414C4.3741 2.72965 3.9139 2.55509 3.33203 2.47046C2.07308 2.22713 1.30607 2.0367 1.03101 1.89917C0.76652 1.75106 0.470296 1.37549 0.142334 0.772461C1.09448 0.730143 2.64437 0.708984 4.79199 0.708984C6.93962 0.708984 8.6429 0.687826 9.90186 0.645508C10.6318 0.60319 11.6898 0.582031 13.0757 0.582031C15.9744 0.582031 18.5876 0.825358 20.915 1.31201C23.2531 1.79867 25.3055 2.68205 27.0723 3.96216C28.839 5.23169 30.1773 6.98787 31.0872 9.23071ZM49.4795 42.5083C46.9404 43.8519 44.5389 44.5237 42.2749 44.5237C39.4185 44.5237 36.9006 43.4393 34.7212 41.2705C32.6053 38.9642 31.5474 36.4516 31.5474 33.7327C31.5474 32.6218 31.6532 31.6009 31.8647 30.6699C32.2033 29.0195 32.8804 27.5966 33.896 26.4011C34.9222 25.1951 36.1917 24.2535 37.7046 23.5764C39.228 22.8888 40.8784 22.4814 42.6558 22.3545C43.0049 22.3122 43.5021 22.291 44.1475 22.291C48.2523 22.291 50.7913 23.8303 51.7646 26.9089C51.9339 27.4908 52.0186 28.0938 52.0186 28.718C52.0186 30.1991 51.4102 31.5427 50.1936 32.7488C48.7019 34.3145 46.5384 35.0974 43.7031 35.0974C41.6296 35.0974 39.6565 34.6637 37.7839 33.7961C37.6147 33.6798 37.53 33.5687 37.53 33.4629C37.53 33.3359 37.6147 33.2725 37.7839 33.2725C39.7306 33.7062 41.3757 33.9231 42.7192 33.9231C44.8034 33.9231 46.4538 33.4259 47.6704 32.4314C48.7918 31.4264 49.3525 30.215 49.3525 28.7974C49.3525 28.2578 49.2467 27.6283 49.0352 26.9089C48.6437 25.5865 47.644 24.6079 46.0359 23.9731C45.1895 23.6769 44.322 23.5288 43.4333 23.5288C41.6983 23.5288 40.0532 24.1794 38.498 25.4807C36.3927 27.2157 35.3083 29.4692 35.2449 32.241C35.2449 32.7805 35.3348 33.6216 35.5146 34.7642C35.9061 36.7637 36.6149 38.4564 37.6411 39.8423C38.6673 41.2282 39.9739 42.0957 41.5608 42.4448C42.1956 42.5718 42.8197 42.6353 43.4333 42.6353C46.4908 42.6353 49.4848 41.0113 52.4153 37.7634C52.3412 38.5357 52.0397 39.4138 51.5107 40.3977C50.9924 41.3816 50.3153 42.0851 49.4795 42.5083ZM74.4734 27.6865C74.0714 28.8608 73.3308 29.5961 72.2517 29.8923C71.8708 30.0193 71.4847 30.0828 71.0933 30.0828C70.5854 30.0828 70.1517 29.9347 69.792 29.6384C69.8449 29.5221 70.0353 29.1835 70.3633 28.6228C70.6912 28.0515 70.924 27.6072 71.0615 27.2898C71.2096 26.9618 71.2837 26.6392 71.2837 26.3218C71.2837 26.0785 71.2202 25.7981 71.0933 25.4807C70.5114 24.5286 69.8608 24.0049 69.1414 23.9097C67.6602 23.9097 66.4013 24.3011 65.3645 25.084C64.3277 25.8669 63.2433 26.9513 62.1113 28.3372C60.8206 30.3367 60.1753 32.7646 60.1753 35.6211C60.1753 38.0015 60.6038 39.9904 61.4607 41.5879C61.7992 42.0322 62.2383 42.3179 62.7778 42.4448C63.3174 42.5718 64.005 42.6353 64.8408 42.6353C65.6343 42.4342 66.2902 42.0587 66.8086 41.5085C67.327 40.9478 67.766 40.2972 68.1257 39.5566C68.4854 38.8161 68.8451 38.0649 69.2048 37.3032H69.792C69.792 38.6997 69.4006 39.9904 68.6177 41.1753C67.8348 42.3602 66.7292 43.2383 65.301 43.8096C64.5922 44.0635 63.8993 44.1904 63.2222 44.1904C61.6141 44.1904 60.1171 43.4975 58.7312 42.1116C58.0753 41.4345 57.6521 40.7362 57.4617 40.0168C57.2712 39.2869 57.1125 38.2078 56.9856 36.7795C56.9433 35.8697 56.9062 34.7642 56.8745 33.4629C56.8534 32.1616 56.8375 30.9185 56.8269 29.7336C56.8269 28.5487 56.8163 27.1099 56.7952 25.4172C56.7952 25.1422 56.6682 24.9676 56.4143 24.8936C56.1604 24.8195 55.7743 24.7666 55.2559 24.7349C54.7375 24.7031 54.346 24.6291 54.0815 24.5127C53.8171 24.3857 53.6795 24.1424 53.6689 23.7827C55.8589 23.4653 57.2871 23.2908 57.9536 23.259C58.6519 23.259 59.3448 23.3278 60.0325 23.4653C60.3393 23.8145 60.4927 24.4386 60.4927 25.3379C60.4927 25.6024 60.4821 26.0943 60.4609 26.8137C60.4398 27.5331 60.4292 28.1679 60.4292 28.718C61.741 26.9618 63.2222 25.4225 64.8726 24.1001C66.5229 22.7671 68.1628 22.1006 69.792 22.1006C71.2096 22.1006 72.4633 22.6825 73.553 23.8462C74.2935 24.8301 74.6638 25.6976 74.6638 26.4487C74.6638 26.8084 74.6003 27.221 74.4734 27.6865ZM93.5005 34.5737C93.765 35.2085 93.8972 35.9014 93.8972 36.6526C93.8232 38.7579 93.0191 40.4718 91.4851 41.7942C89.6125 43.3494 87.3591 44.127 84.7249 44.127C83.3072 44.127 82.0535 43.9524 80.9639 43.6033C79.8424 43.2753 78.9961 42.9103 78.4248 42.5083C77.8641 42.1063 77.3669 41.4345 76.9331 40.4929C76.584 39.8158 76.4094 39.144 76.4094 38.4775C76.4094 37.5677 76.7585 36.7637 77.4568 36.0654C78.1762 35.4624 78.6523 35.1609 78.885 35.1609C79.0543 35.1609 79.2024 35.2244 79.3293 35.3513C79.7208 35.7428 79.9165 36.1554 79.9165 36.5891C79.9165 36.9065 79.8054 37.3826 79.5833 38.0173C79.3717 38.6415 79.2659 39.1176 79.2659 39.4456C79.2659 39.9745 79.4404 40.4083 79.7896 40.7468C81.0697 42.2174 82.6936 42.9526 84.6614 42.9526C85.2644 42.9526 85.8939 42.8892 86.5498 42.7622C87.777 42.4766 88.7979 41.9476 89.6125 41.1753C90.4272 40.403 90.8821 39.4614 90.9773 38.3506C90.9773 36.4146 90.2791 35.1556 88.8826 34.5737C88.1949 34.3092 87.0365 34.0659 85.4072 33.8438C83.7886 33.6216 82.4714 33.3783 81.4558 33.1138C80.4402 32.8493 79.5621 32.3468 78.8215 31.6062C78.081 30.8656 77.6684 29.776 77.5837 28.3372C77.5837 26.3376 78.4724 24.7772 80.2498 23.6558C81.8155 22.7882 83.614 22.3545 85.6453 22.3545C86.682 22.3545 88.7609 22.5925 91.8818 23.0686C92.1357 23.8409 92.2627 24.6661 92.2627 25.5442C92.2627 26.2001 92.1781 27.1734 92.0088 28.4641C91.6702 28.2948 91.2312 27.7817 90.6917 26.9248C90.1521 26.0679 89.7342 25.4543 89.438 25.084C89.1523 24.7031 88.6657 24.3593 87.978 24.0525C87.0999 23.7034 86.2536 23.5288 85.439 23.5288C84.4022 23.5288 83.3019 23.788 82.1382 24.3064C80.8792 24.9729 80.2498 25.9462 80.2498 27.2263C80.2498 27.5649 80.3132 27.9351 80.4402 28.3372C81.3923 29.2258 83.1115 29.887 85.5977 30.3208C88.0838 30.7546 89.8612 31.1672 90.9297 31.5586C92.0088 31.9395 92.8657 32.9445 93.5005 34.5737ZM119.637 35.4783C119.14 37.5201 118.156 39.2498 116.685 40.6675C115.225 42.0745 113.39 43.0531 111.179 43.6033C110.047 43.8678 108.92 44 107.799 44C104.646 44 101.7 42.9791 98.9595 40.9373C96.7484 39.1282 95.6428 36.8324 95.6428 34.05C95.6428 33.0979 95.8174 32.0188 96.1665 30.8127C96.6532 29.2258 97.4096 27.8346 98.4358 26.6392C99.462 25.4437 100.7 24.4862 102.149 23.7668C103.599 23.0474 105.222 22.5767 107.021 22.3545C107.889 22.2699 108.518 22.2275 108.909 22.2275C112.485 22.2275 115.474 23.5288 117.875 26.1313C119.346 27.8558 120.081 29.9135 120.081 32.3044C120.081 33.1402 119.933 34.1982 119.637 35.4783ZM115.987 27.9404C114.718 26.0044 113.205 24.7931 111.448 24.3064C109.999 23.915 108.804 23.7192 107.862 23.7192C105.323 23.7192 103.265 24.9094 101.689 27.2898C100.483 29.1624 99.8799 31.2677 99.8799 33.6057C99.8799 34.8329 100.049 36.1077 100.388 37.4302C100.853 38.8584 101.689 40.0221 102.895 40.9214C104.112 41.8101 105.55 42.2967 107.211 42.3813C107.37 42.3813 107.603 42.3919 107.91 42.4131C108.216 42.4342 108.439 42.4448 108.576 42.4448C111.401 42.4448 113.527 41.5138 114.956 39.6519C116.648 37.3984 117.495 35.145 117.495 32.8916C117.495 31.1566 116.992 29.5062 115.987 27.9404ZM152.597 37.7C152.597 40.1121 151.28 42.1274 148.646 43.7461C148.127 44.127 147.561 44.3174 146.948 44.3174C146.154 44.3174 145.35 43.9524 144.536 43.2224C142.716 41.3922 141.806 38.9219 141.806 35.8115C141.806 35.2191 141.838 34.3621 141.901 33.2407C141.975 32.1193 142.012 31.1777 142.012 30.416C142.012 28.7762 141.817 27.348 141.425 26.1313C141.224 25.4543 140.87 24.8724 140.362 24.3857C139.865 23.8991 139.288 23.6558 138.632 23.6558C136.739 23.9202 135.019 24.8354 133.475 26.4011C131.93 27.9563 130.703 29.6966 129.793 31.6221C128.883 33.5369 128.428 35.0181 128.428 36.0654V41.7307C128.428 42.1222 128.793 42.4395 129.523 42.6829C130.264 42.9262 130.634 43.233 130.634 43.6033C130.634 43.6562 130.592 43.8096 130.507 44.0635C127.556 44.0635 124.953 44.0212 122.7 43.9365C122.181 43.9365 121.922 43.8043 121.922 43.5398C122.017 43.307 122.372 43.106 122.985 42.9368C123.61 42.7675 124.064 42.6088 124.35 42.4607C124.636 42.302 124.779 41.9899 124.779 41.5244C124.789 39.6413 124.8 36.9858 124.81 33.5581C124.831 30.1198 124.842 27.3797 124.842 25.3379C124.842 25.0628 124.678 24.8565 124.35 24.719C124.033 24.5709 123.541 24.4228 122.874 24.2747C122.208 24.116 121.763 23.9996 121.541 23.9255C121.319 23.8409 121.208 23.7087 121.208 23.5288C121.208 23.3172 121.383 23.1003 121.732 22.8782C122.165 22.5714 123.292 22.418 125.112 22.418C126.561 22.418 127.73 22.5502 128.619 22.8147C128.598 23.4918 128.571 24.0472 128.54 24.481C128.518 24.9041 128.492 25.4119 128.46 26.0044C128.428 26.5863 128.402 27.1417 128.381 27.6707C128.37 28.189 128.365 28.6281 128.365 28.9878C128.365 29.9823 128.428 30.9979 128.555 32.0347C129.381 30.6382 130.264 29.1571 131.206 27.5913C132.147 26.0256 133.226 24.7296 134.443 23.7034C135.67 22.6772 137.13 22.1641 138.823 22.1641C139.965 22.2064 140.828 22.2963 141.409 22.4338C141.991 22.5608 142.557 22.9046 143.107 23.4653C144.842 25.2004 145.71 27.3427 145.71 29.8923C145.71 30.8022 145.599 32.1193 145.377 33.8438C145.165 35.5682 145.059 36.9171 145.059 37.8904C145.059 38.4934 145.08 38.9695 145.123 39.3186C145.292 40.8949 146.033 41.8682 147.344 42.2385C147.651 42.3337 147.91 42.3813 148.122 42.3813C149.54 42.3813 151.031 40.8209 152.597 37.7ZM183.431 36.4622C183.272 38.2501 182.907 39.7788 182.336 41.0483C181.765 42.3179 180.786 43.1272 179.4 43.4763C178.564 43.6562 177.998 43.7461 177.702 43.7461C176.475 43.7461 175.348 43.27 174.322 42.3179C173.656 41.6302 173.201 40.9108 172.957 40.1597C172.164 41.0801 171.603 41.6831 171.275 41.9688C170.947 42.2544 170.402 42.5612 169.641 42.8892C167.821 43.7144 166.07 44.127 164.388 44.127C162.187 44.127 160.124 43.4552 158.199 42.1116C155.819 40.4506 154.628 37.938 154.628 34.5737C154.628 33.7591 154.692 32.9604 154.819 32.1775C155.062 30.7916 155.432 29.5644 155.93 28.4958C156.438 27.4273 157.104 26.4752 157.929 25.6394C158.765 24.8036 159.812 24.0578 161.071 23.4019C162.859 22.492 164.631 22.0371 166.387 22.0371C168.482 22.0371 170.566 22.619 172.64 23.7827C173.021 22.894 173.756 22.418 174.846 22.3545C175.015 22.3545 175.211 22.3704 175.433 22.4021C175.666 22.4338 175.84 22.4603 175.957 22.4814C175.935 23.3913 175.893 24.6714 175.83 26.3218C175.777 27.9722 175.75 29.4004 175.75 30.6064C175.75 34.3727 175.946 37.6894 176.337 40.5564C176.528 41.3816 177.353 41.7942 178.813 41.7942C179.638 41.6249 180.257 41.2493 180.67 40.6675C181.082 40.075 181.484 39.2657 181.876 38.2395C182.267 37.2133 182.611 36.5098 182.907 36.1289C183.002 36.1289 183.092 36.1818 183.177 36.2876C183.272 36.3828 183.357 36.441 183.431 36.4622ZM172.513 25.8616C171.286 24.1265 169.508 23.259 167.181 23.259C165.858 23.259 164.642 23.5658 163.531 24.1794C161.722 25.0999 160.437 26.3324 159.675 27.877C158.913 29.4215 158.532 31.2835 158.532 33.4629C158.68 37.8639 160.22 40.6622 163.15 41.8577C164.071 42.2068 164.912 42.3813 165.673 42.3813C168.107 42.3813 170.36 41.1859 172.434 38.7949C172.434 37.9168 172.407 36.6261 172.354 34.9229C172.301 33.2196 172.264 31.9342 172.243 31.0667C172.243 29.1835 172.333 27.4485 172.513 25.8616ZM197.443 35.4783C197.443 38.2289 196.988 40.2655 196.079 41.5879C194.925 43.2806 193.497 44.127 191.794 44.127C191.307 44.127 190.831 44.0423 190.366 43.873C188.546 43.2594 187.351 42.1856 186.779 40.6516C186.219 39.1176 185.938 37.134 185.938 34.7007V3.96216C185.938 3.36971 185.684 2.97298 185.177 2.77197C184.669 2.57096 184.034 2.43872 183.272 2.37524C182.5 2.31177 182.114 2.21126 182.114 2.07373C182.114 1.91504 182.436 1.65584 183.082 1.29614C183.653 1.03166 184.436 0.899414 185.43 0.899414C185.885 0.899414 186.462 0.925863 187.16 0.97876C187.858 1.02108 188.409 1.04224 188.811 1.04224C188.811 5.03068 188.811 8.68587 188.811 12.0078C188.811 15.3192 188.816 19.4928 188.826 24.5286C188.848 29.5644 188.863 34.0818 188.874 38.0808C188.959 40.3131 189.847 41.6567 191.54 42.1116C191.879 42.1962 192.138 42.2385 192.318 42.2385C193.227 42.2385 194.243 41.6778 195.365 40.5564C195.809 40.1438 196.1 39.6677 196.237 39.1282C196.385 38.5886 196.549 37.9433 196.729 37.1921C196.909 36.441 197.147 35.8697 197.443 35.4783ZM251.7 26.782C251.7 27.1205 251.43 27.4379 250.891 27.7341C250.351 28.0304 250.034 28.3583 249.938 28.718C249.452 35.51 246.939 39.9745 242.401 42.1116C239.354 43.4975 236.407 44.1904 233.562 44.1904C229.827 44.1904 226.51 43.0426 223.612 40.7468C218.766 36.9594 216.344 31.6062 216.344 24.6873C216.344 22.9734 216.47 21.1802 216.724 19.3076C217.222 15.1816 218.734 11.5846 221.263 8.5166C223.791 5.44857 226.896 3.14754 230.578 1.61353C232.038 0.96818 233.726 0.645508 235.64 0.645508C237.65 0.645508 240.422 1.10042 243.956 2.01025C244.39 2.01025 244.818 1.92562 245.241 1.75635C245.664 1.5765 245.998 1.48657 246.241 1.48657C246.537 1.48657 246.685 1.68229 246.685 2.07373C246.685 2.67676 246.781 3.6818 246.971 5.08887C247.172 6.48535 247.272 7.60148 247.272 8.43726C247.272 9.28361 247.167 10.003 246.955 10.5955C246.606 10.3839 246.352 10.1194 246.193 9.802C246.045 9.47404 245.871 9.00326 245.67 8.38965C245.479 7.77604 245.278 7.27352 245.067 6.88208C243.289 3.67651 240.258 2.07373 235.974 2.07373C235.815 2.07373 235.593 2.08431 235.307 2.10547C235.021 2.12663 234.81 2.13721 234.672 2.13721C227.849 2.53923 223.252 7.4375 220.882 16.832C220.321 19.0643 220.041 21.36 220.041 23.7192C220.073 27.2104 220.766 30.4319 222.12 33.3835C223.474 36.3352 225.511 38.8796 228.229 41.0166C229.965 42.2227 231.938 42.8257 234.149 42.8257C235.64 42.8257 237.285 42.5453 239.084 41.9846C240.999 41.3922 242.543 40.3713 243.718 38.9219C244.892 37.4619 245.559 35.711 245.717 33.6692C245.738 33.3201 245.797 32.807 245.892 32.1299C245.987 31.4422 246.035 30.9344 246.035 30.6064C246.035 29.3052 245.537 28.4588 244.543 28.0674C244.331 27.9827 243.94 27.9087 243.369 27.8452C242.797 27.7712 242.364 27.6548 242.067 27.4961C241.771 27.3374 241.623 27.0518 241.623 26.6392C244.913 26.6392 247.622 26.5968 249.748 26.5122C250.044 26.5122 250.415 26.4699 250.859 26.3853C251.314 26.3853 251.594 26.5175 251.7 26.782ZM283.66 36.4622C283.502 38.2501 283.137 39.7788 282.565 41.0483C281.994 42.3179 281.016 43.1272 279.63 43.4763C278.794 43.6562 278.228 43.7461 277.932 43.7461C276.704 43.7461 275.578 43.27 274.552 42.3179C273.885 41.6302 273.43 40.9108 273.187 40.1597C272.393 41.0801 271.833 41.6831 271.505 41.9688C271.177 42.2544 270.632 42.5612 269.87 42.8892C268.05 43.7144 266.3 44.127 264.617 44.127C262.417 44.127 260.354 43.4552 258.428 42.1116C256.048 40.4506 254.858 37.938 254.858 34.5737C254.858 33.7591 254.921 32.9604 255.048 32.1775C255.292 30.7916 255.662 29.5644 256.159 28.4958C256.667 27.4273 257.333 26.4752 258.159 25.6394C258.994 24.8036 260.042 24.0578 261.301 23.4019C263.089 22.492 264.861 22.0371 266.617 22.0371C268.712 22.0371 270.796 22.619 272.869 23.7827C273.25 22.894 273.986 22.418 275.075 22.3545C275.244 22.3545 275.44 22.3704 275.662 22.4021C275.895 22.4338 276.07 22.4603 276.186 22.4814C276.165 23.3913 276.123 24.6714 276.059 26.3218C276.006 27.9722 275.98 29.4004 275.98 30.6064C275.98 34.3727 276.175 37.6894 276.567 40.5564C276.757 41.3816 277.583 41.7942 279.042 41.7942C279.868 41.6249 280.487 41.2493 280.899 40.6675C281.312 40.075 281.714 39.2657 282.105 38.2395C282.497 37.2133 282.84 36.5098 283.137 36.1289C283.232 36.1289 283.322 36.1818 283.406 36.2876C283.502 36.3828 283.586 36.441 283.66 36.4622ZM272.742 25.8616C271.515 24.1265 269.738 23.259 267.41 23.259C266.088 23.259 264.871 23.5658 263.76 24.1794C261.951 25.0999 260.666 26.3324 259.904 27.877C259.143 29.4215 258.762 31.2835 258.762 33.4629C258.91 37.8639 260.449 40.6622 263.38 41.8577C264.3 42.2068 265.141 42.3813 265.903 42.3813C268.336 42.3813 270.59 41.1859 272.663 38.7949C272.663 37.9168 272.637 36.6261 272.584 34.9229C272.531 33.2196 272.494 31.9342 272.473 31.0667C272.473 29.1835 272.563 27.4485 272.742 25.8616ZM301.116 36.3352C301.466 36.7372 301.64 37.2133 301.64 37.7634C301.64 38.4088 301.466 39.0382 301.116 39.6519C300.207 41.7254 298.562 43.1113 296.181 43.8096C295.546 43.9788 294.853 44.0635 294.102 44.0635C292.833 44.0635 291.643 43.6297 290.532 42.7622C289.104 41.5879 288.389 40.1385 288.389 38.4141C288.389 36.3828 288.379 33.9548 288.358 31.1301C288.347 28.3054 288.337 26.1578 288.326 24.6873H285.263C284.512 24.6873 283.994 24.518 283.708 24.1794C284.036 23.8515 284.665 23.5288 285.596 23.2114C286.527 22.894 287.194 22.5026 287.596 22.0371C289.416 19.826 290.415 16.1391 290.595 10.9763C290.595 10.3733 290.939 10.0718 291.627 10.0718C292.06 10.0718 292.277 10.1987 292.277 10.4526C292.172 11.6164 292.092 13.6582 292.039 16.5781C291.997 19.498 291.971 21.8149 291.96 23.5288H300.339V24.5603H291.896C291.896 25.2903 291.886 26.4487 291.865 28.0356C291.844 29.6226 291.833 30.8286 291.833 31.6538C291.833 36.2876 292.05 39.2763 292.484 40.6199C292.812 41.699 293.743 42.2385 295.277 42.2385C295.827 42.2385 296.366 42.175 296.895 42.0481C298.08 41.8471 298.942 41.2758 299.482 40.3342C300.021 39.3821 300.566 38.0491 301.116 36.3352ZM320.239 34.5737C320.503 35.2085 320.635 35.9014 320.635 36.6526C320.561 38.7579 319.757 40.4718 318.223 41.7942C316.351 43.3494 314.097 44.127 311.463 44.127C310.045 44.127 308.792 43.9524 307.702 43.6033C306.581 43.2753 305.734 42.9103 305.163 42.5083C304.602 42.1063 304.105 41.4345 303.671 40.4929C303.322 39.8158 303.148 39.144 303.148 38.4775C303.148 37.5677 303.497 36.7637 304.195 36.0654C304.914 35.4624 305.391 35.1609 305.623 35.1609C305.793 35.1609 305.941 35.2244 306.068 35.3513C306.459 35.7428 306.655 36.1554 306.655 36.5891C306.655 36.9065 306.544 37.3826 306.322 38.0173C306.11 38.6415 306.004 39.1176 306.004 39.4456C306.004 39.9745 306.179 40.4083 306.528 40.7468C307.808 42.2174 309.432 42.9526 311.4 42.9526C312.003 42.9526 312.632 42.8892 313.288 42.7622C314.515 42.4766 315.536 41.9476 316.351 41.1753C317.165 40.403 317.62 39.4614 317.716 38.3506C317.716 36.4146 317.017 35.1556 315.621 34.5737C314.933 34.3092 313.775 34.0659 312.146 33.8438C310.527 33.6216 309.21 33.3783 308.194 33.1138C307.178 32.8493 306.3 32.3468 305.56 31.6062C304.819 30.8656 304.407 29.776 304.322 28.3372C304.322 26.3376 305.211 24.7772 306.988 23.6558C308.554 22.7882 310.352 22.3545 312.384 22.3545C313.42 22.3545 315.499 22.5925 318.62 23.0686C318.874 23.8409 319.001 24.6661 319.001 25.5442C319.001 26.2001 318.916 27.1734 318.747 28.4641C318.409 28.2948 317.969 27.7817 317.43 26.9248C316.89 26.0679 316.472 25.4543 316.176 25.084C315.891 24.7031 315.404 24.3593 314.716 24.0525C313.838 23.7034 312.992 23.5288 312.177 23.5288C311.14 23.5288 310.04 23.788 308.876 24.3064C307.618 24.9729 306.988 25.9462 306.988 27.2263C306.988 27.5649 307.052 27.9351 307.178 28.3372C308.131 29.2258 309.85 29.887 312.336 30.3208C314.822 30.7546 316.599 31.1672 317.668 31.5586C318.747 31.9395 319.604 32.9445 320.239 34.5737ZM341.821 26.6392C342.731 28.5435 343.186 30.4742 343.186 32.4314C343.186 34.9176 342.535 37.2556 341.234 39.4456C339.34 42.5876 336.288 44.1904 332.077 44.2539C330.247 44.2539 328.512 43.7831 326.872 42.8416C325.232 41.8894 324.28 40.7786 324.016 39.509C323.36 36.5362 323.032 32.3573 323.032 26.9724C323.032 26.3376 323.042 25.4278 323.063 24.2429C323.095 23.0474 323.122 21.9419 323.143 20.9263C323.175 19.9106 323.206 18.8686 323.238 17.8C323.238 16.6363 323.259 15.0917 323.302 13.1663C323.344 11.2408 323.365 9.86019 323.365 9.02441C323.365 6.60173 323.323 4.7609 323.238 3.50195C323.185 2.98356 322.815 2.72437 322.127 2.72437H321.223C320.482 2.72437 320.112 2.38053 320.112 1.69287C321.582 1.07926 323.164 0.772461 324.857 0.772461C325.142 0.804199 325.423 0.851807 325.698 0.915283C325.983 0.96818 326.2 1.0105 326.348 1.04224C326.348 4.63924 326.343 7.56974 326.333 9.83374C326.322 12.0977 326.306 14.695 326.285 17.6255C326.274 20.5454 326.264 23.3331 326.253 25.9885C326.243 28.6334 326.232 31.3893 326.221 34.2563C326.295 38.0967 327.681 40.6093 330.379 41.7942C331.31 42.1856 332.241 42.3813 333.172 42.3813C334.685 42.3813 336.007 41.9476 337.139 41.0801C338.324 40.2443 339.187 39.3768 339.726 38.4775C340.276 37.5783 340.583 36.4727 340.646 35.1609C340.646 32.9604 340.361 31.1724 339.79 29.7971C339.229 28.4112 338.261 27.2528 336.885 26.3218C336.06 25.7611 335.018 25.4807 333.759 25.4807H332.204C331.834 25.523 331.374 25.7822 330.823 26.2583C330.273 26.7344 329.866 26.9724 329.602 26.9724C329.337 26.9724 329.078 26.8402 328.824 26.5757C329.12 25.4648 329.723 24.5603 330.633 23.8621C331.553 23.1532 332.638 22.7354 333.886 22.6084C334.193 22.5661 334.627 22.5449 335.188 22.5449C338.245 22.5449 340.456 23.9097 341.821 26.6392ZM374.543 22.291C374.501 22.7036 374.374 22.9681 374.162 23.0845C373.951 23.1903 373.57 23.3278 373.02 23.4971C372.48 23.6558 372.12 23.8621 371.94 24.116C371.115 25.1845 370.433 26.3218 369.893 27.5278C369.364 28.7339 368.777 30.2732 368.132 32.1458C367.497 34.0183 367.01 35.346 366.672 36.1289C366.016 37.5783 364.99 40.001 363.593 43.397C362.197 46.7824 360.927 49.6071 359.785 51.8711C358.642 54.1457 357.277 56.3515 355.69 58.4885C354.865 59.5782 354.066 60.3928 353.294 60.9324C352.522 61.4719 351.543 61.7417 350.358 61.7417C348.274 61.5936 346.931 60.8372 346.328 59.4724C345.989 58.6049 345.82 57.8696 345.82 57.2666C345.82 56.2721 346.185 55.685 346.915 55.5051C347.285 55.5051 347.581 55.6532 347.803 55.9495C348.036 56.2457 348.274 56.69 348.518 57.2825C348.771 57.8749 349.02 58.3404 349.263 58.679C349.507 59.0281 349.829 59.2291 350.231 59.282C351.882 59.282 353.236 58.7953 354.294 57.822C355.362 56.8593 356.283 55.6109 357.055 54.0769C357.838 52.5535 358.706 50.8396 359.658 48.9353C360.536 47.3061 361.186 45.8144 361.61 44.4602C361.081 43.4869 360.208 41.9106 358.991 39.7312C357.785 37.5413 356.352 35.0551 354.691 32.2727C353.04 29.4903 351.596 27.2475 350.358 25.5442C349.861 24.8883 349.3 24.5603 348.676 24.5603C348.401 24.5603 348.142 24.6291 347.899 24.7666C347.158 25.1792 346.788 25.8722 346.788 26.8455C346.788 27.057 346.809 27.422 346.851 27.9404C346.894 28.4588 346.915 28.8503 346.915 29.1147C346.915 29.485 346.978 29.9452 347.105 30.4954C347.243 31.0455 347.312 31.5374 347.312 31.9712C346.497 30.8498 346 29.813 345.82 28.8608C345.64 27.8664 345.55 27.1047 345.55 26.5757C345.55 25.3379 345.941 24.3011 346.724 23.4653C347.465 22.5872 348.375 22.0847 349.454 21.9578C351.295 21.9578 352.617 22.6084 353.421 23.9097C354.839 25.8669 356.6 28.5964 358.706 32.0981C360.821 35.5894 362.419 38.2765 363.498 40.1597C364.08 39.0382 364.582 37.9486 365.006 36.8906C365.429 35.8221 365.863 34.6478 366.307 33.3677C366.751 32.077 367.18 30.7757 367.592 29.4639C368.005 28.152 368.417 26.8455 368.83 25.5442C368.83 25.0681 368.481 24.4386 367.783 23.6558C367.613 23.4865 367.312 23.386 366.878 23.3542C366.455 23.3119 366.153 23.2485 365.974 23.1638C365.794 23.0792 365.704 22.8306 365.704 22.418C365.905 22.4074 367.122 22.3968 369.354 22.3862C371.597 22.3757 373.326 22.3439 374.543 22.291Z" fill="#2A2A57"/>
</svg>
